<svg width="100" height="100" viewBox="0 0 100 100" fill="white"
    xmlns="http://www.w3.org/2000/svg">
    <path d="M50.048 92.4223C73.5307 92.4223 92.5672 73.3857 92.5672 49.903C92.5672 26.4203 73.5307 7.38373 50.048 7.38373C26.5652 7.38373 7.52869 26.4203 7.52869 49.903C7.52869 73.3857 26.5652 92.4223 50.048 92.4223Z" stroke="white" stroke-width="4" stroke-miterlimit="1.5" stroke-linecap="round" stroke-linejoin="round"/>
    <path d="M26.8125 31.6367V40.6367C26.8125 41.418 26.7773 42.082 26.707 42.6289C26.6445 43.1758 26.4961 43.7305 26.2617 44.293C25.8711 45.2383 25.2266 45.9766 24.3281 46.5078C23.4297 47.0312 22.3359 47.293 21.0469 47.293C19.8828 47.293 18.9102 47.1094 18.1289 46.7422C17.3555 46.375 16.7305 45.7812 16.2539 44.9609C16.0039 44.5234 15.8008 44.0195 15.6445 43.4492C15.4883 42.8789 15.4102 42.3359 15.4102 41.8203C15.4102 41.2734 15.5625 40.8555 15.8672 40.5664C16.1719 40.2773 16.5625 40.1328 17.0391 40.1328C17.5 40.1328 17.8477 40.2656 18.082 40.5312C18.3164 40.7969 18.4961 41.2109 18.6211 41.7734C18.7539 42.375 18.8867 42.8555 19.0195 43.2148C19.1523 43.5742 19.375 43.8828 19.6875 44.1406C20 44.3984 20.4453 44.5273 21.0234 44.5273C22.5625 44.5273 23.332 43.3984 23.332 41.1406V31.6367C23.332 30.9336 23.4844 30.4062 23.7891 30.0547C24.1016 29.7031 24.5234 29.5273 25.0547 29.5273C25.5938 29.5273 26.0195 29.7031 26.332 30.0547C26.6523 30.4062 26.8125 30.9336 26.8125 31.6367Z" />
    <path d="M39.293 41.5742H33.0352C33.043 42.3008 33.1875 42.9414 33.4688 43.4961C33.7578 44.0508 34.1367 44.4688 34.6055 44.75C35.082 45.0312 35.6055 45.1719 36.1758 45.1719C36.5586 45.1719 36.9062 45.1289 37.2188 45.043C37.5391 44.9492 37.8477 44.8086 38.1445 44.6211C38.4414 44.4258 38.7148 44.2188 38.9648 44C39.2148 43.7812 39.5391 43.4844 39.9375 43.1094C40.1016 42.9688 40.3359 42.8984 40.6406 42.8984C40.9688 42.8984 41.2344 42.9883 41.4375 43.168C41.6406 43.3477 41.7422 43.6016 41.7422 43.9297C41.7422 44.2188 41.6289 44.5586 41.4023 44.9492C41.1758 45.332 40.832 45.7031 40.3711 46.0625C39.918 46.4141 39.3438 46.707 38.6484 46.9414C37.9609 47.1758 37.168 47.293 36.2695 47.293C34.2148 47.293 32.6172 46.707 31.4766 45.5352C30.3359 44.3633 29.7656 42.7734 29.7656 40.7656C29.7656 39.8203 29.9062 38.9453 30.1875 38.1406C30.4688 37.3281 30.8789 36.6328 31.418 36.0547C31.957 35.4766 32.6211 35.0352 33.4102 34.7305C34.1992 34.418 35.0742 34.2617 36.0352 34.2617C37.2852 34.2617 38.3555 34.5273 39.2461 35.0586C40.1445 35.582 40.8164 36.2617 41.2617 37.0977C41.707 37.9336 41.9297 38.7852 41.9297 39.6523C41.9297 40.457 41.6992 40.9805 41.2383 41.2227C40.7773 41.457 40.1289 41.5742 39.293 41.5742ZM33.0352 39.7578H38.8359C38.7578 38.6641 38.4609 37.8477 37.9453 37.3086C37.4375 36.7617 36.7656 36.4883 35.9297 36.4883C35.1328 36.4883 34.4766 36.7656 33.9609 37.3203C33.4531 37.8672 33.1445 38.6797 33.0352 39.7578Z" />
    <path d="M53.4023 45.4648V45.1484C52.9727 45.6406 52.5469 46.043 52.125 46.3555C51.7109 46.6602 51.2578 46.8906 50.7656 47.0469C50.2812 47.2109 49.75 47.293 49.1719 47.293C48.4062 47.293 47.6953 47.1328 47.0391 46.8125C46.3906 46.4844 45.8281 46.0195 45.3516 45.418C44.875 44.8164 44.5117 44.1094 44.2617 43.2969C44.0195 42.4844 43.8984 41.6055 43.8984 40.6602C43.8984 38.6602 44.3867 37.1016 45.3633 35.9844C46.3398 34.8672 47.625 34.3086 49.2188 34.3086C50.1406 34.3086 50.918 34.4688 51.5508 34.7891C52.1836 35.1016 52.8008 35.5859 53.4023 36.2422V31.5195C53.4023 30.8633 53.5312 30.3672 53.7891 30.0312C54.0547 29.6953 54.4297 29.5273 54.9141 29.5273C55.3984 29.5273 55.7695 29.6836 56.0273 29.9961C56.293 30.3008 56.4258 30.7539 56.4258 31.3555V45.4648C56.4258 46.0742 56.2852 46.5312 56.0039 46.8359C55.7227 47.1406 55.3594 47.293 54.9141 47.293C54.4766 47.293 54.1133 47.1367 53.8242 46.8242C53.543 46.5039 53.4023 46.0508 53.4023 45.4648ZM47.1094 40.7656C47.1094 41.6328 47.2422 42.3711 47.5078 42.9805C47.7812 43.5898 48.1523 44.0508 48.6211 44.3633C49.0898 44.668 49.6016 44.8203 50.1562 44.8203C50.7188 44.8203 51.2305 44.6758 51.6914 44.3867C52.1602 44.0898 52.5312 43.6406 52.8047 43.0391C53.0859 42.4297 53.2266 41.6719 53.2266 40.7656C53.2266 39.9141 53.0859 39.1836 52.8047 38.5742C52.5312 37.957 52.1562 37.4883 51.6797 37.168C51.2109 36.8398 50.6953 36.6758 50.1328 36.6758C49.5469 36.6758 49.0234 36.8438 48.5625 37.1797C48.1016 37.5078 47.7422 37.9844 47.4844 38.6094C47.2344 39.2266 47.1094 39.9453 47.1094 40.7656Z" />
    <path d="M62.543 36.0547V36.4414C63.1055 35.6992 63.7188 35.1562 64.3828 34.8125C65.0547 34.4609 65.8242 34.2852 66.6914 34.2852C67.5352 34.2852 68.2891 34.4688 68.9531 34.8359C69.6172 35.2031 70.1133 35.7227 70.4414 36.3945C70.6523 36.7852 70.7891 37.207 70.8516 37.6602C70.9141 38.1133 70.9453 38.6914 70.9453 39.3945V45.3477C70.9453 45.9883 70.7969 46.4727 70.5 46.8008C70.2109 47.1289 69.832 47.293 69.3633 47.293C68.8867 47.293 68.5 47.125 68.2031 46.7891C67.9062 46.4531 67.7578 45.9727 67.7578 45.3477V40.0156C67.7578 38.9609 67.6094 38.1562 67.3125 37.6016C67.0234 37.0391 66.4414 36.7578 65.5664 36.7578C64.9961 36.7578 64.4766 36.9297 64.0078 37.2734C63.5391 37.6094 63.1953 38.0742 62.9766 38.668C62.8203 39.1445 62.7422 40.0352 62.7422 41.3398V45.3477C62.7422 45.9961 62.5898 46.4844 62.2852 46.8125C61.9883 47.1328 61.6016 47.293 61.125 47.293C60.6641 47.293 60.2852 47.125 59.9883 46.7891C59.6914 46.4531 59.543 45.9727 59.543 45.3477V36.1016C59.543 35.4922 59.6758 35.0391 59.9414 34.7422C60.207 34.4375 60.5703 34.2852 61.0312 34.2852C61.3125 34.2852 61.5664 34.3516 61.793 34.4844C62.0195 34.6172 62.1992 34.8164 62.332 35.082C62.4727 35.3477 62.543 35.6719 62.543 36.0547Z" />
    <path d="M86.1211 40.7891C86.1211 41.7422 85.9727 42.6211 85.6758 43.4258C85.3789 44.2305 84.9492 44.9219 84.3867 45.5C83.8242 46.0781 83.1523 46.5234 82.3711 46.8359C81.5898 47.1406 80.7109 47.293 79.7344 47.293C78.7656 47.293 77.8945 47.1367 77.1211 46.8242C76.3477 46.5117 75.6758 46.0664 75.1055 45.4883C74.543 44.9023 74.1133 44.2148 73.8164 43.4258C73.5273 42.6289 73.3828 41.75 73.3828 40.7891C73.3828 39.8203 73.5312 38.9336 73.8281 38.1289C74.125 37.3242 74.5508 36.6367 75.1055 36.0664C75.6602 35.4961 76.332 35.0586 77.1211 34.7539C77.9102 34.4414 78.7812 34.2852 79.7344 34.2852C80.7031 34.2852 81.582 34.4414 82.3711 34.7539C83.1602 35.0664 83.8359 35.5117 84.3984 36.0898C84.9609 36.668 85.3867 37.3555 85.6758 38.1523C85.9727 38.9492 86.1211 39.8281 86.1211 40.7891ZM82.9102 40.7891C82.9102 39.4844 82.6211 38.4688 82.043 37.7422C81.4727 37.0156 80.7031 36.6523 79.7344 36.6523C79.1094 36.6523 78.5586 36.8164 78.082 37.1445C77.6055 37.4648 77.2383 37.9414 76.9805 38.5742C76.7227 39.207 76.5938 39.9453 76.5938 40.7891C76.5938 41.625 76.7188 42.3555 76.9688 42.9805C77.2266 43.6055 77.5898 44.0859 78.0586 44.4219C78.5352 44.75 79.0938 44.9141 79.7344 44.9141C80.7031 44.9141 81.4727 44.5508 82.043 43.8242C82.6211 43.0898 82.9102 42.0781 82.9102 40.7891Z" />
    <path d="M38.7305 54.6367V60.6602L45.5625 53.5352C45.8906 53.1914 46.168 52.9375 46.3945 52.7734C46.6289 52.6094 46.9375 52.5273 47.3203 52.5273C47.8203 52.5273 48.2227 52.6758 48.5273 52.9727C48.8398 53.2617 48.9961 53.6172 48.9961 54.0391C48.9961 54.5469 48.7344 55.0508 48.2109 55.5508L43.9805 59.5586L48.8555 66.543C49.1992 67.0273 49.457 67.4531 49.6289 67.8203C49.8008 68.1797 49.8867 68.5312 49.8867 68.875C49.8867 69.2578 49.7344 69.5898 49.4297 69.8711C49.1328 70.1523 48.7266 70.293 48.2109 70.293C47.7266 70.293 47.332 70.1914 47.0273 69.9883C46.7227 69.7773 46.4648 69.5 46.2539 69.1562C46.043 68.8125 45.8555 68.5 45.6914 68.2188L41.5781 61.8906L38.7305 64.6211V68.1719C38.7305 68.8906 38.5664 69.4258 38.2383 69.7773C37.9102 70.1211 37.4883 70.293 36.9727 70.293C36.6758 70.293 36.3906 70.2148 36.1172 70.0586C35.8438 69.9023 35.6328 69.6914 35.4844 69.4258C35.375 69.207 35.3086 68.9531 35.2852 68.6641C35.2617 68.375 35.25 67.957 35.25 67.4102V54.6367C35.25 53.9336 35.4023 53.4062 35.707 53.0547C36.0195 52.7031 36.4414 52.5273 36.9727 52.5273C37.4961 52.5273 37.918 52.7031 38.2383 53.0547C38.5664 53.3984 38.7305 53.9258 38.7305 54.6367Z" />
    <path d="M60.5273 68.4883C59.7539 69.0898 59.0039 69.543 58.2773 69.8477C57.5586 70.1445 56.75 70.293 55.8516 70.293C55.0312 70.293 54.3086 70.1328 53.6836 69.8125C53.0664 69.4844 52.5898 69.043 52.2539 68.4883C51.918 67.9336 51.75 67.332 51.75 66.6836C51.75 65.8086 52.0273 65.0625 52.582 64.4453C53.1367 63.8281 53.8984 63.4141 54.8672 63.2031C55.0703 63.1562 55.5742 63.0508 56.3789 62.8867C57.1836 62.7227 57.8711 62.5742 58.4414 62.4414C59.0195 62.3008 59.6445 62.1328 60.3164 61.9375C60.2773 61.0938 60.1055 60.4766 59.8008 60.0859C59.5039 59.6875 58.8828 59.4883 57.9375 59.4883C57.125 59.4883 56.5117 59.6016 56.0977 59.8281C55.6914 60.0547 55.3398 60.3945 55.043 60.8477C54.7539 61.3008 54.5469 61.6016 54.4219 61.75C54.3047 61.8906 54.0469 61.9609 53.6484 61.9609C53.2891 61.9609 52.9766 61.8477 52.7109 61.6211C52.4531 61.3867 52.3242 61.0898 52.3242 60.7305C52.3242 60.168 52.5234 59.6211 52.9219 59.0898C53.3203 58.5586 53.9414 58.1211 54.7852 57.7773C55.6289 57.4336 56.6797 57.2617 57.9375 57.2617C59.3438 57.2617 60.4492 57.4297 61.2539 57.7656C62.0586 58.0938 62.625 58.6172 62.9531 59.3359C63.2891 60.0547 63.457 61.0078 63.457 62.1953C63.457 62.9453 63.4531 63.582 63.4453 64.1055C63.4453 64.6289 63.4414 65.2109 63.4336 65.8516C63.4336 66.4531 63.5312 67.082 63.7266 67.7383C63.9297 68.3867 64.0312 68.8047 64.0312 68.9922C64.0312 69.3203 63.875 69.6211 63.5625 69.8945C63.2578 70.1602 62.9102 70.293 62.5195 70.293C62.1914 70.293 61.8672 70.1406 61.5469 69.8359C61.2266 69.5234 60.8867 69.0742 60.5273 68.4883ZM60.3164 63.8594C59.8477 64.0312 59.1641 64.2148 58.2656 64.4102C57.375 64.5977 56.7578 64.7383 56.4141 64.832C56.0703 64.918 55.7422 65.0938 55.4297 65.3594C55.1172 65.6172 54.9609 65.9805 54.9609 66.4492C54.9609 66.9336 55.1445 67.3477 55.5117 67.6914C55.8789 68.0273 56.3594 68.1953 56.9531 68.1953C57.5859 68.1953 58.168 68.0586 58.6992 67.7852C59.2383 67.5039 59.6328 67.1445 59.8828 66.707C60.1719 66.2227 60.3164 65.4258 60.3164 64.3164V63.8594Z" />
    <path d="M66.457 57.5664H67.2188V56.6055C67.2188 55.6055 67.3438 54.8125 67.5938 54.2266C67.8516 53.6328 68.2812 53.2031 68.8828 52.9375C69.4922 52.6641 70.3242 52.5273 71.3789 52.5273C73.2461 52.5273 74.1797 52.9844 74.1797 53.8984C74.1797 54.1953 74.082 54.4492 73.8867 54.6602C73.6914 54.8711 73.4609 54.9766 73.1953 54.9766C73.0703 54.9766 72.8555 54.9531 72.5508 54.9062C72.2461 54.8594 71.9883 54.8359 71.7773 54.8359C71.1992 54.8359 70.8281 55.0078 70.6641 55.3516C70.5 55.6875 70.418 56.1719 70.418 56.8047V57.5664H71.2031C72.4219 57.5664 73.0312 57.9336 73.0312 58.668C73.0312 59.1914 72.8672 59.5234 72.5391 59.6641C72.2188 59.8047 71.7734 59.875 71.2031 59.875H70.418V68.3477C70.418 68.9805 70.2656 69.4648 69.9609 69.8008C69.6641 70.1289 69.2773 70.293 68.8008 70.293C68.3477 70.293 67.9688 70.1289 67.6641 69.8008C67.3672 69.4648 67.2188 68.9805 67.2188 68.3477V59.875H66.3398C65.8633 59.875 65.4961 59.7695 65.2383 59.5586C64.9805 59.3398 64.8516 59.0586 64.8516 58.7148C64.8516 57.9492 65.3867 57.5664 66.457 57.5664Z" />
    <path d="M83.3086 64.5742H77.0508C77.0586 65.3008 77.2031 65.9414 77.4844 66.4961C77.7734 67.0508 78.1523 67.4688 78.6211 67.75C79.0977 68.0312 79.6211 68.1719 80.1914 68.1719C80.5742 68.1719 80.9219 68.1289 81.2344 68.043C81.5547 67.9492 81.8633 67.8086 82.1602 67.6211C82.457 67.4258 82.7305 67.2188 82.9805 67C83.2305 66.7812 83.5547 66.4844 83.9531 66.1094C84.1172 65.9688 84.3516 65.8984 84.6562 65.8984C84.9844 65.8984 85.25 65.9883 85.4531 66.168C85.6562 66.3477 85.7578 66.6016 85.7578 66.9297C85.7578 67.2188 85.6445 67.5586 85.418 67.9492C85.1914 68.332 84.8477 68.7031 84.3867 69.0625C83.9336 69.4141 83.3594 69.707 82.6641 69.9414C81.9766 70.1758 81.1836 70.293 80.2852 70.293C78.2305 70.293 76.6328 69.707 75.4922 68.5352C74.3516 67.3633 73.7812 65.7734 73.7812 63.7656C73.7812 62.8203 73.9219 61.9453 74.2031 61.1406C74.4844 60.3281 74.8945 59.6328 75.4336 59.0547C75.9727 58.4766 76.6367 58.0352 77.4258 57.7305C78.2148 57.418 79.0898 57.2617 80.0508 57.2617C81.3008 57.2617 82.3711 57.5273 83.2617 58.0586C84.1602 58.582 84.832 59.2617 85.2773 60.0977C85.7227 60.9336 85.9453 61.7852 85.9453 62.6523C85.9453 63.457 85.7148 63.9805 85.2539 64.2227C84.793 64.457 84.1445 64.5742 83.3086 64.5742ZM77.0508 62.7578H82.8516C82.7734 61.6641 82.4766 60.8477 81.9609 60.3086C81.4531 59.7617 80.7812 59.4883 79.9453 59.4883C79.1484 59.4883 78.4922 59.7656 77.9766 60.3203C77.4688 60.8672 77.1602 61.6797 77.0508 62.7578Z" />
</svg>
